<?xml version="1.0" standalone="no"?>
<!DOCTYPE svg PUBLIC "-//W3C//DTD SVG 20010904//EN"
 "http://www.w3.org/TR/2001/REC-SVG-20010904/DTD/svg10.dtd">
<svg version="1.0" xmlns="http://www.w3.org/2000/svg"
 width="300.000000pt" height="400.000000pt" viewBox="0 0 300.000000 400.000000"
 preserveAspectRatio="xMidYMid meet">
<metadata>
Created by potrace 1.10, written by Peter Selinger 2001-2011
</metadata>
<g transform="translate(0.000000,400.000000) scale(0.100000,-0.100000)"
fill="#000000" stroke="none">
<path d="M228 3994 c-5 -4 -8 -23 -8 -43 0 -25 3 -32 11 -24 6 6 9 25 7 43 -2
17 -6 28 -10 24z"/>
<path d="M260 3960 c0 -39 -20 -72 -50 -82 -7 -2 -11 -9 -9 -16 3 -9 11 -8 31
2 26 14 38 12 38 -6 0 -15 -65 -37 -167 -58 -52 -11 -97 -20 -99 -20 -2 0 -4
-5 -4 -10 0 -13 78 -4 180 21 104 26 130 55 130 144 0 63 -1 65 -25 65 -22 0
-25 -4 -25 -40z"/>
<path d="M393 3939 c9 -103 42 -123 222 -135 142 -9 357 21 435 61 31 16 50
54 50 100 0 46 -29 47 -50 3 -17 -35 -45 -48 -168 -74 -133 -28 -407 -17 -449
17 -7 7 -16 29 -19 50 -11 64 -27 46 -21 -22z"/>
<path d="M1180 3966 c0 -43 30 -81 78 -98 59 -20 357 -17 461 5 107 23 139 40
157 82 8 19 14 37 14 40 0 11 -30 4 -62 -14 -80 -45 -293 -74 -450 -60 -100 9
-153 28 -163 58 -11 34 -35 26 -35 -13z"/>
<path d="M1970 3981 c0 -33 54 -69 117 -78 101 -14 311 -9 403 11 107 23 145
39 160 66 12 22 11 22 -21 16 -19 -3 -54 -7 -79 -9 -25 -2 -88 -9 -140 -16
-99 -14 -259 -9 -321 10 -19 5 -53 12 -76 14 -37 5 -43 3 -43 -14z"/>
<path d="M2766 3989 c13 -21 76 -40 155 -46 69 -5 79 -4 79 11 0 11 -9 16 -27
17 -78 2 -122 8 -141 18 -27 15 -75 15 -66 0z"/>
<path d="M2529 3826 c-2 -2 -62 -6 -134 -10 -71 -3 -173 -9 -225 -12 -201 -11
-195 -4 -179 -218 12 -153 13 -156 35 -156 l24 0 -8 108 c-4 59 -7 139 -7 177
l0 70 80 3 c44 1 183 9 310 17 126 8 232 11 236 7 6 -5 39 -331 39 -376 0 -3
4 -6 8 -6 18 0 -20 379 -39 391 -13 8 -131 13 -140 5z"/>
<path d="M1533 3771 c-345 -19 -333 -15 -333 -120 0 -36 3 -103 6 -148 7 -81
7 -81 37 -87 18 -4 35 -1 41 5 8 9 5 10 -11 6 -20 -4 -22 0 -27 67 -15 200
-17 235 -8 239 4 3 60 8 123 12 63 3 141 7 174 10 33 2 122 7 197 11 l137 7 5
-24 c3 -13 10 -87 16 -163 9 -112 8 -141 -2 -148 -9 -5 -5 -8 12 -8 l25 0 -10
153 c-6 83 -16 162 -22 173 -13 22 -35 35 -56 33 -7 -1 -143 -9 -304 -18z"/>
<path d="M510 3710 c-250 -16 -468 -30 -485 -33 -49 -9 382 6 535 18 233 18
500 27 513 17 10 -9 16 -50 20 -148 3 -75 7 -138 10 -140 2 -3 11 -2 18 1 12
4 13 19 7 78 -4 39 -7 97 -7 128 -1 41 -7 63 -22 83 -25 32 8 32 -589 -4z"/>
<path d="M2405 3651 c-3 -6 4 -8 16 -6 17 3 19 2 9 -10 -7 -8 -10 -20 -7 -27
4 -8 6 -7 6 5 1 9 6 17 11 17 6 0 10 7 10 15 0 16 -35 21 -45 6z"/>
<path d="M1628 3623 c6 -2 12 -20 12 -39 0 -20 5 -44 10 -55 11 -20 30 -26 30
-8 0 5 -4 8 -9 5 -11 -7 -25 49 -16 64 8 13 -12 40 -29 39 -7 0 -6 -2 2 -6z"/>
<path d="M2322 3610 c-15 -25 -49 -26 -55 -2 -4 16 -5 16 -6 -1 -1 -23 27 -33
50 -18 12 7 19 8 19 1 0 -6 -10 -15 -22 -20 -16 -6 -18 -9 -7 -9 23 -1 41 24
37 49 l-3 21 -13 -21z"/>
<path d="M1537 3614 c-3 -4 0 -22 8 -41 19 -45 19 -49 -2 -32 -15 13 -15 12
-2 -8 22 -36 34 -10 16 35 -9 22 -13 42 -10 46 4 3 4 6 1 6 -2 0 -7 -3 -11 -6z"/>
<path d="M774 3578 c1 -28 -17 -36 -24 -11 -3 10 -11 19 -19 21 -11 2 -11 -2
2 -21 18 -28 11 -43 -11 -25 -17 15 -42 19 -42 8 0 -5 9 -12 20 -15 15 -5 19
-12 15 -26 -6 -17 -1 -19 64 -19 38 0 73 4 76 10 4 6 -1 7 -12 3 -16 -6 -16
-5 -4 10 12 15 12 17 -3 11 -9 -3 -16 -10 -16 -15 0 -5 -5 -9 -11 -9 -5 0 -7
5 -3 12 4 7 3 8 -4 4 -6 -4 -25 -9 -41 -11 -27 -3 -29 -1 -19 14 6 10 18 16
27 14 13 -3 17 4 19 31 2 20 -1 36 -6 36 -4 0 -8 -10 -8 -22z"/>
<path d="M2957 3464 c-3 -3 -50 -10 -104 -14 l-98 -8 115 1 c63 0 109 2 102 4
-6 3 -10 9 -6 14 6 10 1 12 -9 3z"/>
<path d="M2080 3440 c-17 -5 -1 -9 52 -14 43 -4 82 -5 88 -1 7 4 39 7 72 6 34
0 58 2 55 5 -3 3 -38 5 -79 4 -91 -2 -96 -2 -133 3 -16 2 -41 0 -55 -3z"/>
<path d="M2473 3438 c-2 -5 34 -8 81 -8 47 0 87 3 89 8 3 4 -33 7 -80 7 -47 0
-87 -3 -90 -7z"/>
<path d="M1632 3434 c9 -9 88 -11 148 -3 46 5 38 6 -49 8 -57 0 -102 -2 -99
-5z"/>
<path d="M697 3423 c-4 -3 -2 -12 4 -19 9 -11 14 -11 26 1 19 20 35 9 28 -18
-5 -21 -4 -21 7 1 9 18 19 23 42 21 17 -2 37 -7 44 -12 8 -7 12 -4 12 7 0 12
-11 16 -47 17 -27 1 -62 3 -79 5 -17 2 -34 1 -37 -3z"/>
<path d="M889 3425 c0 0 -2 -12 -4 -27 -2 -16 1 -28 6 -28 5 0 9 7 9 15 0 16
39 36 53 28 4 -2 7 1 7 6 0 6 -15 10 -35 8 -19 -1 -35 -2 -36 -2z"/>
<path d="M1343 3423 c26 -2 68 -2 95 0 26 2 4 3 -48 3 -52 0 -74 -1 -47 -3z"/>
<path d="M7 3413 c-10 -16 19 -28 64 -28 31 0 45 4 42 12 -3 6 -19 10 -39 8
-19 -2 -37 1 -40 6 -6 11 -21 12 -27 2z"/>
<path d="M131 3404 c6 -7 15 -11 20 -8 5 3 17 0 28 -5 14 -8 20 -8 23 1 3 8
10 8 27 -2 13 -6 21 -8 18 -3 -4 6 15 8 48 6 30 -2 55 0 55 5 0 5 7 9 15 9 8
0 12 -4 10 -8 -3 -3 2 -13 11 -20 14 -11 15 -10 12 11 -3 27 -35 38 -66 24 -9
-4 -20 -7 -24 -6 -4 1 -48 4 -98 6 -77 4 -89 2 -79 -10z"/>
<path d="M438 3412 c-16 -2 -28 -9 -28 -17 0 -7 8 -12 18 -10 9 1 25 -2 35 -7
13 -7 17 -5 17 9 0 15 2 15 9 4 7 -10 13 -12 23 -5 7 6 23 9 36 8 12 0 22 2
22 7 0 4 20 7 45 5 25 -1 50 1 57 6 7 4 -23 7 -67 5 -44 -1 -86 -6 -92 -10 -7
-5 -21 -4 -30 0 -10 5 -30 7 -45 5z"/>
<path d="M2733 3410 c-27 -11 -30 -19 -5 -15 9 1 22 -2 29 -7 7 -6 19 -5 32 1
14 8 21 8 25 -2 5 -9 7 -9 12 1 3 6 11 9 16 6 7 -4 8 -2 4 4 -9 14 -66 16 -66
2 0 -5 -7 -7 -15 -4 -8 4 -12 10 -9 15 6 11 6 10 -23 -1z"/>
<path d="M2910 3395 c0 -17 5 -25 18 -24 10 0 12 3 5 6 -26 10 -13 32 17 31
17 -1 33 2 37 5 3 4 -12 7 -35 7 -38 0 -42 -2 -42 -25z"/>
<path d="M1710 3381 c4 -16 6 -31 4 -34 -2 -2 5 -3 16 -2 11 1 23 5 27 10 5 4
3 5 -4 1 -6 -3 -15 -1 -20 6 -8 13 -9 18 -12 38 0 6 -5 10 -10 10 -6 0 -6 -12
-1 -29z"/>
<path d="M1947 3390 c5 -19 6 -19 19 -3 7 10 14 13 14 7 0 -6 7 -11 15 -11 29
0 9 22 -22 25 -28 3 -31 1 -26 -18z"/>
<path d="M994 3382 c2 -28 20 -43 28 -23 11 27 9 37 -11 38 -12 1 -18 -5 -17
-15z"/>
<path d="M1574 3334 c-4 -16 -12 -23 -20 -20 -8 3 -14 1 -14 -4 0 -6 3 -10 8
-10 4 0 17 -3 28 -6 14 -4 23 0 28 12 6 15 4 15 -10 3 -16 -13 -17 -11 -11 19
8 38 0 43 -9 6z"/>
<path d="M1358 3323 c-10 -3 -18 -9 -18 -14 0 -6 8 -5 21 1 15 8 24 8 34 0 9
-7 15 -8 20 0 3 5 5 10 3 11 -19 4 -46 5 -60 2z"/>
<path d="M1980 3304 c0 -6 9 -19 20 -29 11 -10 17 -22 14 -26 -3 -5 3 -6 12
-2 16 6 15 7 -2 20 -21 15 -6 17 29 4 13 -5 30 -6 37 -1 8 5 -2 10 -28 15 -23
4 -46 4 -51 1 -5 -4 -14 2 -20 11 -6 10 -11 13 -11 7z"/>
<path d="M2108 3304 c-9 -9 14 -44 29 -44 7 0 13 -4 13 -9 0 -11 46 -8 58 3 4
4 3 7 -3 5 -25 -5 -77 16 -84 33 -4 10 -10 16 -13 12z"/>
<path d="M2596 3282 c-4 -7 -1 -14 8 -17 9 -3 23 -7 31 -10 20 -6 19 9 -2 26
-11 10 -14 10 -9 2 4 -7 3 -13 -3 -13 -5 0 -11 5 -13 12 -3 9 -6 9 -12 0z"/>
<path d="M291 3258 c-1 -14 -8 -16 -38 -13 -21 2 -39 5 -40 6 -8 5 -31 4 -60
-2 -18 -4 -49 -3 -68 1 -20 4 -35 4 -35 -1 0 -5 -5 -9 -11 -9 -5 0 -8 4 -5 9
4 5 -3 7 -14 4 -11 -3 -20 -11 -20 -19 0 -16 84 -19 773 -22 401 -1 527 1 527
10 0 9 3 9 12 0 14 -14 88 -16 88 -2 0 6 9 10 20 10 11 0 20 -4 20 -9 0 -6 41
-10 95 -9 65 1 92 4 88 12 -4 6 0 5 9 -2 21 -17 1368 -31 1368 -15 0 20 -28
35 -47 26 -22 -11 -173 -10 -190 0 -7 5 -13 5 -13 0 0 -4 -13 -8 -30 -9 -16
-1 -29 2 -28 5 2 19 -3 24 -12 11 -11 -17 -118 -24 -155 -10 -16 6 -25 5 -29
-3 -3 -9 -7 -8 -14 2 -7 9 -20 12 -43 7 -19 -3 -60 -7 -92 -8 -45 -2 -57 0
-57 12 0 12 -2 12 -9 2 -5 -9 -39 -15 -105 -17 -63 -3 -94 -1 -90 6 3 5 14 7
24 4 10 -3 21 -1 25 4 3 7 0 8 -9 5 -9 -3 -16 -2 -16 4 0 18 -37 1 -48 -21 -9
-18 -11 -19 -11 -4 -1 16 -21 25 -21 9 0 -11 -33 -11 -40 -1 -3 5 -24 11 -45
14 -22 3 -35 2 -29 -2 7 -4 -19 -8 -57 -8 -38 -1 -69 3 -69 8 0 4 -5 5 -10 2
-6 -4 -18 -1 -27 6 -12 11 -17 11 -27 -1 -14 -18 -47 -25 -44 -9 2 6 -3 14
-10 16 -7 3 -11 -1 -10 -9 2 -7 -4 -11 -12 -9 -38 8 -66 8 -83 -3 -15 -9 -21
-7 -32 7 -8 12 -14 14 -17 6 -4 -13 -50 -19 -59 -6 -3 4 -14 7 -25 6 -10 -1
-63 -1 -117 -1 -65 0 -95 -3 -91 -10 4 -5 -5 -2 -20 7 -18 12 -26 14 -26 5 0
-9 -4 -9 -17 1 -14 12 -16 12 -11 -2 5 -14 0 -15 -35 -12 -52 5 -96 4 -122 -3
-16 -4 -17 -3 -5 5 8 6 10 11 4 11 -5 0 -15 -5 -21 -11 -8 -8 -13 -8 -17 0 -4
6 -12 11 -17 11 -6 0 -7 -4 -4 -10 3 -6 -4 -10 -17 -10 -17 0 -19 3 -9 9 11 7
9 10 -9 16 -12 4 -27 2 -33 -4 -6 -6 -16 -7 -27 -1 -9 5 -22 5 -29 1 -7 -5
-28 -5 -47 -1 -21 5 -34 4 -34 -2 0 -6 -8 -4 -17 3 -11 10 -14 10 -9 2 4 -8 1
-13 -8 -13 -9 0 -16 4 -16 8 0 4 -9 8 -20 8 -11 0 -20 -5 -20 -11 0 -5 -5 -3
-10 5 -7 11 -10 11 -10 2 0 -8 -5 -10 -12 -5 -18 11 -38 13 -38 3 0 -7 -113
-4 -137 4 -6 3 -14 2 -18 -2 -10 -11 -68 -11 -87 -1 -13 7 -18 6 -19 -3 0 -7
-4 -4 -9 7 -7 16 -9 17 -9 3z"/>
<path d="M1340 2815 c-91 -29 -119 -103 -57 -149 25 -18 42 -21 137 -21 l109
0 -6 -40 c-7 -54 -24 -92 -67 -152 -47 -65 -88 -96 -178 -134 -117 -49 -189
-69 -252 -69 -65 0 -69 -11 -7 -17 49 -5 138 18 250 63 113 45 144 67 200 144
53 73 71 115 71 171 l0 37 73 12 c215 33 435 92 453 121 10 17 -7 31 -19 16
-25 -31 -207 -83 -389 -112 -124 -19 -118 -20 -118 13 0 33 -31 86 -63 107
-36 23 -85 27 -137 10z m113 -19 c39 -16 63 -49 72 -100 l7 -36 -100 0 c-147
0 -187 22 -155 87 24 51 113 76 176 49z"/>
<path d="M2912 2084 c-104 -64 -187 -104 -227 -111 -20 -3 -38 -10 -41 -15
-10 -15 53 0 121 30 55 24 207 113 230 133 23 22 -16 5 -83 -37z"/>
<path d="M1146 1937 c-67 -88 -116 -246 -86 -282 17 -20 79 -49 87 -41 3 3 1
6 -6 6 -6 0 4 14 24 31 41 37 47 69 11 69 -32 0 -76 -36 -76 -63 -1 -22 -1
-22 -16 -2 -30 38 13 182 82 272 13 17 20 34 15 38 -5 3 -21 -9 -35 -28z m34
-244 c0 -10 -42 -53 -52 -53 -14 0 -9 28 8 44 16 16 44 22 44 9z"/>
<path d="M287 1868 c-46 -94 -97 -214 -97 -230 0 -4 4 -8 10 -8 5 0 15 18 21
41 13 41 33 61 76 73 20 6 22 2 28 -49 10 -74 26 -71 19 4 -6 52 -5 60 12 64
16 4 15 5 -4 6 -23 1 -23 3 -20 79 2 42 8 85 12 95 5 10 4 17 -2 17 -6 0 -31
-42 -55 -92z m28 -46 c0 -57 -1 -59 -32 -69 -18 -5 -33 -9 -33 -7 0 6 59 134
62 134 2 0 3 -26 3 -58z"/>
<path d="M987 1872 c-52 -119 -76 -230 -51 -239 7 -2 10 5 7 19 -4 22 36 154
70 230 9 20 13 39 8 42 -5 3 -20 -20 -34 -52z"/>
<path d="M776 1912 c-2 -4 -7 -23 -11 -43 -7 -40 12 -69 45 -69 16 0 17 -4 9
-32 -11 -40 -12 -115 -1 -122 4 -2 8 19 9 48 2 58 43 173 70 193 9 7 14 16 10
19 -14 14 -36 -7 -56 -50 -31 -71 -77 -55 -65 23 6 38 2 52 -10 33z"/>
<path d="M405 1900 c-4 -6 27 -9 87 -9 87 2 89 2 38 9 -80 11 -118 11 -125 0z"/>
<path d="M15 1891 c3 -6 27 -7 54 -4 l48 5 -19 -88 c-19 -97 -24 -160 -9 -134
5 8 15 51 21 95 18 113 23 123 62 128 18 2 -11 5 -65 5 -60 1 -96 -2 -92 -7z"/>
<path d="M1501 1863 c-56 -67 -67 -157 -26 -198 31 -32 72 -32 118 -1 20 14
48 26 64 29 l28 4 -27 2 c-25 1 -26 4 -21 36 12 74 -36 165 -88 165 -9 0 -31
-17 -48 -37z m99 -25 c19 -42 26 -108 14 -121 -4 -3 -15 -2 -26 4 -10 6 -24 8
-31 6 -7 -3 1 -10 17 -16 27 -11 28 -12 12 -30 -45 -50 -116 -22 -116 44 0 40
18 93 42 124 l18 24 0 -34 c0 -19 5 -41 11 -49 8 -11 9 -1 4 38 -5 48 -4 52
15 52 15 0 27 -12 40 -42z"/>
<path d="M485 1823 c-9 -78 -22 -154 -31 -177 -5 -14 -3 -17 7 -14 22 7 62
248 41 248 -6 0 -13 -26 -17 -57z"/>
<path d="M1810 1872 c0 -14 20 -27 60 -41 39 -13 32 -5 -22 28 -21 13 -38 18
-38 13z"/>
<path d="M1910 1790 c-11 -7 -4 -10 28 -10 23 0 42 -3 42 -6 0 -3 -14 -23 -32
-45 -30 -37 -31 -40 -15 -57 25 -24 87 -19 152 13 73 36 65 42 -13 10 -106
-43 -147 -27 -98 38 32 42 32 53 4 61 -32 8 -51 7 -68 -4z"/>
<path d="M1703 1765 c-7 -20 4 -74 18 -92 6 -7 20 -13 29 -13 24 0 60 46 60
76 0 36 -18 29 -22 -7 -2 -18 -11 -37 -21 -43 -26 -16 -50 18 -43 62 5 32 -10
45 -21 17z"/>
<path d="M0 1747 c0 -5 5 -17 10 -27 7 -13 7 -21 0 -25 -16 -10 -12 -25 5 -19
19 8 19 35 0 60 -8 10 -15 15 -15 11z"/>
<path d="M1835 1737 c-4 -8 -5 -26 -3 -39 4 -22 5 -22 17 6 8 20 8 33 2 39 -7
7 -12 5 -16 -6z"/>
<path d="M1161 1615 c-1 -7 -190 -10 -581 -8 -354 1 -580 -2 -580 -8 0 -8 342
-10 1380 -11 907 -1 1620 4 1620 12 0 6 -345 8 -915 7 -603 -1 -916 1 -919 8
-3 6 -5 6 -5 0z"/>
<path d="M0 1567 c0 -4 15 -28 34 -54 47 -65 65 -153 42 -205 -9 -20 -25 -39
-36 -43 -11 -4 -18 -11 -15 -16 4 -5 -2 -9 -11 -9 -10 0 -15 -3 -12 -6 3 -3
395 -8 871 -10 633 -4 867 -3 872 5 5 9 -63 11 -251 10 -239 -2 -258 0 -271
17 -20 27 -16 65 15 136 32 75 50 101 77 113 19 8 19 8 2 12 -58 14 -154 -198
-119 -263 10 -18 6 -19 -86 -16 -54 1 -314 3 -579 5 l-482 2 20 21 c43 46 43
137 0 221 -18 35 -71 95 -71 80z"/>
<path d="M2513 1559 c-17 -5 -41 -22 -53 -37 -19 -23 -21 -35 -16 -92 3 -36 1
-85 -4 -110 -5 -26 -5 -49 0 -54 14 -14 28 34 22 73 -3 25 -1 32 8 26 6 -4 10
-16 7 -26 -3 -11 -1 -17 4 -13 5 3 14 -6 21 -20 19 -44 28 -29 28 46 0 70 1
72 40 108 49 45 54 85 14 100 -29 11 -28 11 -71 -1z m79 -34 c-5 -28 -62 -86
-62 -62 0 9 -7 17 -15 17 -9 0 -15 -9 -15 -24 0 -13 -3 -32 -7 -42 -4 -11 -3
-15 4 -11 7 4 13 -9 15 -36 3 -23 4 -44 2 -45 -6 -8 -42 75 -48 112 -14 73 23
117 94 113 29 -2 34 -5 32 -22z"/>
<path d="M1880 1552 c0 -5 13 -21 29 -36 17 -16 42 -57 57 -92 30 -72 28 -120
-8 -154 -12 -11 -16 -20 -9 -20 6 0 23 11 36 25 31 30 32 74 4 149 -28 72
-109 168 -109 128z"/>
<path d="M1133 1542 c-26 -4 -53 -37 -53 -64 0 -10 -4 -18 -9 -18 -5 0 -9 -40
-10 -90 -1 -89 7 -110 29 -71 13 26 14 52 0 31 -7 -11 -10 3 -10 48 0 35 4 62
10 62 6 0 10 13 10 29 0 34 23 61 50 61 28 0 33 -16 14 -51 -12 -25 -18 -29
-25 -18 -8 14 -10 10 -13 -21 -1 -8 -8 -14 -15 -12 -10 2 -12 -6 -6 -35 4 -21
8 -53 10 -72 2 -18 8 -38 14 -44 8 -8 11 11 11 67 0 73 2 81 30 113 17 18 30
39 30 46 -1 29 -28 46 -67 39z"/>
<path d="M433 1527 c-38 -9 -60 -27 -33 -27 7 0 8 -27 4 -75 -4 -51 -2 -75 5
-75 6 0 11 17 11 38 0 38 1 39 48 50 l47 11 -47 -5 -48 -5 0 36 c0 20 5 37 13
39 6 2 28 8 47 14 46 13 7 13 -47 -1z"/>
<path d="M811 1513 c-20 -44 -25 -119 -11 -154 12 -29 12 -33 -11 -50 -29 -22
-39 -6 -13 22 9 10 14 22 10 27 -9 9 -46 -35 -46 -54 0 -25 30 -28 60 -5 17
12 31 17 35 11 3 -6 18 -9 33 -9 21 1 23 2 7 6 -39 10 -44 21 -24 60 19 37 25
106 13 151 -9 30 -38 28 -53 -5z m39 -40 c0 -64 -19 -131 -31 -112 -20 31 -2
159 22 159 5 0 9 -21 9 -47z"/>
<path d="M2686 1525 c-85 -85 -119 -153 -114 -224 l4 -56 -271 0 c-286 0 -335
-2 -335 -15 0 -5 154 -6 343 -4 188 3 420 5 515 4 115 0 172 3 172 10 0 7 -62
10 -193 8 -106 -1 -198 2 -205 6 -7 4 -12 28 -12 54 0 53 35 122 94 186 20 21
36 40 36 42 0 9 -20 3 -34 -11z"/>
<path d="M2963 1502 c10 -10 17 -32 18 -48 l1 -29 10 32 c8 25 7 35 -5 47 -23
23 -44 21 -24 -2z"/>
<path d="M1485 1462 c-7 -30 -23 -52 -36 -52 -5 0 -17 16 -26 35 -9 19 -23 35
-30 35 -8 0 -12 -3 -10 -7 2 -5 12 -43 22 -85 10 -43 22 -78 28 -78 5 0 6 11
3 25 -19 78 -19 73 7 68 37 -7 87 63 58 81 -5 3 -12 -6 -16 -22z"/>
<path d="M1563 1420 c-15 -18 -28 -37 -28 -43 0 -15 93 -13 108 2 13 13 4 13
-45 2 -44 -10 -49 1 -16 36 12 13 19 26 16 29 -4 3 -19 -9 -35 -26z"/>
<path d="M2763 1425 c-29 -20 -61 -120 -46 -143 5 -9 18 -18 27 -20 20 -4 106
36 106 50 0 5 -16 1 -36 -11 -40 -24 -84 -28 -84 -7 0 34 14 76 24 74 21 -4
64 12 69 27 6 14 -16 45 -31 45 -4 0 -17 -7 -29 -15z m47 -13 c0 -15 -24 -32
-44 -32 -18 0 -19 1 -1 20 18 20 45 27 45 12z"/>
<path d="M2157 1413 c-15 -15 -5 -21 21 -14 15 5 37 6 50 5 14 -3 21 0 17 6
-7 11 -78 14 -88 3z"/>
<path d="M506 1401 c-9 -13 10 -101 24 -114 10 -9 11 -8 7 8 -16 60 -18 87 -7
100 10 12 9 15 -3 15 -9 0 -18 -4 -21 -9z"/>
<path d="M1727 1380 c9 -17 26 -30 36 -30 15 0 17 -4 11 -17 -4 -10 -9 -37
-12 -59 l-4 -42 49 -6 c60 -8 153 -4 153 6 0 8 -36 11 -109 8 -38 -1 -43 1
-37 16 6 16 5 16 -15 -2 l-22 -19 7 49 c4 27 15 64 24 82 20 44 7 56 -21 20
l-23 -28 -17 26 c-24 36 -42 33 -20 -4z"/>
<path d="M590 1377 c0 -5 32 -70 37 -76 2 -3 14 6 27 18 l24 22 6 -25 c5 -19
13 -26 29 -25 17 1 18 2 5 6 -13 3 -18 15 -18 39 0 41 -6 42 -41 8 l-26 -25
-13 30 c-7 17 -16 31 -21 31 -5 0 -9 -2 -9 -3z"/>
<path d="M2241 1368 c-25 -4 -49 -13 -55 -19 -8 -9 -3 -10 19 -4 17 5 50 11
75 14 30 4 38 8 25 12 -11 3 -40 2 -64 -3z"/>
<path d="M1560 1319 c-11 -7 3 -8 45 -3 33 3 62 8 64 10 10 9 -96 3 -109 -7z"/>
<path d="M69 1148 c-1 -18 -2 -85 -3 -148 l-1 -115 -32 -3 c-18 -2 -33 -7 -33
-12 0 -4 107 -9 238 -9 142 -1 238 -5 240 -11 2 -6 8 -10 13 -10 4 0 6 7 3 15
-4 8 6 37 20 65 30 57 34 86 7 51 l-19 -24 -27 42 c-15 23 -30 39 -32 37 -6
-6 16 -47 39 -73 18 -19 18 -24 5 -48 l-14 -28 -159 1 c-87 0 -176 1 -197 1
l-38 1 3 150 c2 83 0 150 -4 150 -5 0 -9 -15 -9 -32z"/>
<path d="M813 1052 c-23 -15 -44 -79 -34 -106 22 -56 100 -75 139 -33 35 37
24 94 -26 135 -18 13 -60 16 -79 4z m87 -34 c28 -30 27 -82 -2 -102 -32 -23
-55 -20 -84 10 -20 19 -24 31 -19 52 15 61 67 81 105 40z"/>
<path d="M610 1012 c0 -6 19 -12 43 -14 l42 -3 -37 -23 c-21 -13 -38 -31 -38
-40 0 -10 3 -13 8 -7 4 6 24 23 45 39 21 15 35 32 30 37 -13 13 -93 23 -93 11z"/>
<path d="M2919 896 c-9 -9 -788 -19 -1586 -20 -480 -1 -828 -5 -823 -10 5 -5
492 -6 1142 -2 1148 6 1334 9 1345 20 4 3 -5 6 -20 6 -14 0 -32 2 -39 5 -8 3
-16 4 -19 1z"/>
<path d="M400 677 c0 -8 11 -24 24 -36 23 -22 23 -25 10 -57 -17 -40 -18 -58
-3 -49 6 4 8 10 5 13 -3 3 8 30 25 60 32 57 33 81 1 41 l-19 -23 -17 32 c-18
34 -26 40 -26 19z"/>
<path d="M562 657 c-25 -26 -29 -36 -20 -45 7 -7 19 -12 28 -12 12 1 11 3 -3
11 -18 10 -17 13 9 40 15 16 25 31 23 34 -3 2 -20 -10 -37 -28z"/>
<path d="M806 680 c23 -9 54 -66 54 -98 0 -25 -35 -52 -67 -52 -36 0 -65 35
-57 68 4 15 13 34 20 43 8 8 14 22 14 30 -1 32 -50 -43 -50 -77 0 -50 31 -78
82 -71 21 3 45 11 53 17 37 31 -2 151 -48 149 -22 0 -22 0 -1 -9z"/>
<path d="M595 579 c-54 -12 -69 -18 -62 -25 6 -6 88 16 102 28 5 4 7 8 5 7 -3
-1 -23 -5 -45 -10z"/>
<path d="M2656 522 c-3 -3 -780 -12 -1198 -14 -131 0 -238 -5 -238 -10 0 -7
1212 -2 1375 7 33 1 135 4 228 5 92 1 170 7 173 12 5 8 -332 8 -340 0z"/>
<path d="M77 503 c18 -2 50 -2 70 0 21 2 7 4 -32 4 -38 0 -55 -2 -38 -4z"/>
<path d="M383 503 c26 -2 67 -2 90 0 23 2 2 3 -48 3 -49 0 -68 -1 -42 -3z"/>
<path d="M560 501 c0 -4 30 -7 68 -8 44 -1 60 2 46 7 -26 10 -114 11 -114 1z"/>
<path d="M846 498 c7 -11 111 -10 118 1 4 5 -22 9 -58 8 -36 0 -63 -4 -60 -9z"/>
<path d="M1010 498 c0 -4 45 -8 101 -8 55 0 98 4 95 9 -7 10 -196 10 -196 -1z"/>
<path d="M210 423 c-8 -16 -24 -41 -35 -58 -38 -53 -104 -165 -97 -165 4 1 34
44 67 96 33 53 68 109 78 125 11 16 15 29 10 29 -5 0 -16 -12 -23 -27z"/>
<path d="M903 333 c-7 -2 -13 -9 -13 -14 0 -4 7 -6 16 -2 13 5 12 -1 -5 -33
-26 -48 -26 -52 1 -75 22 -20 102 -27 112 -10 4 5 -11 7 -33 4 -74 -10 -104
35 -60 91 24 31 58 34 100 9 38 -22 49 -61 24 -80 -11 -7 -14 -13 -8 -13 15 0
43 28 43 43 0 55 -114 106 -177 80z"/>
<path d="M605 314 c11 -9 29 -20 40 -26 17 -9 16 -6 -4 16 -14 14 -32 26 -40
26 -13 -1 -12 -4 4 -16z"/>
<path d="M820 316 c0 -8 -15 -26 -32 -40 -21 -17 -27 -26 -17 -26 26 0 77 64
59 75 -5 3 -10 -1 -10 -9z"/>
<path d="M676 283 c-10 -21 -24 -50 -32 -65 -18 -33 -18 -44 0 -29 16 14 61
119 54 127 -3 2 -13 -12 -22 -33z"/>
<path d="M2814 171 c-5 -5 -163 -11 -464 -16 -309 -5 -290 -4 -290 -12 0 -9
218 -8 560 2 135 4 275 8 312 9 80 1 92 16 16 17 -29 0 -70 1 -91 2 -21 1 -41
0 -43 -2z"/>
<path d="M490 138 c0 -5 20 -8 45 -7 24 2 42 5 39 8 -8 9 -84 8 -84 -1z"/>
<path d="M874 139 c-3 -5 18 -9 47 -9 29 0 49 3 46 6 -10 10 -87 12 -93 3z"/>
<path d="M1090 140 l-65 -7 78 -1 c50 -1 76 2 72 8 -3 6 -9 9 -13 8 -4 -1 -36
-4 -72 -8z"/>
<path d="M1245 140 l-60 -7 63 -1 c36 -1 62 2 62 8 0 6 -1 9 -2 8 -2 -1 -30
-4 -63 -8z"/>
<path d="M1400 141 c0 -6 107 -10 275 -10 153 0 275 4 275 9 0 5 -123 9 -275
10 -169 0 -275 -3 -275 -9z"/>
<path d="M1960 140 c0 -5 20 -10 45 -10 25 0 45 5 45 10 0 6 -20 10 -45 10
-25 0 -45 -4 -45 -10z"/>
</g>
</svg>
